<svg xmlns="http://www.w3.org/2000/svg" width="200" height="200" viewBox="0 0 200 200">
  <defs>
    <linearGradient id="g" x1="0%" y1="0%" x2="100%" y2="100%">
      <stop offset="0%" stop-color="#5ea3ff"/>
      <stop offset="100%" stop-color="#1b2640"/>
    </linearGradient>
  </defs>
  <rect width="200" height="200" rx="32" fill="#0e0f12"/>
  <rect x="16" y="16" width="168" height="168" rx="28" fill="url(#g)" opacity="0.9"/>
  <path d="M60 120c0-26 21-47 47-47h20c0 17-14 31-31 31H78c0 10 8 18 18 18h12c0 10-8 18-18 18-16 0-30-13-30-30z" fill="#e5f1ff" opacity="0.95"/>
  <path d="M74 72c0-12 10-22 22-22h22c0 12-10 22-22 22H74z" fill="#e5f1ff" opacity="0.7"/>
  <circle cx="132" cy="126" r="22" fill="#0e0f12" opacity="0.8"/>
  <path d="M132 110l8 16h-16l8-16z" fill="#5ea3ff"/>
</svg>
